<?xml version="1.0" encoding="UTF-8"?>
<svg width="512" height="512" version="1.1" viewBox="0 0 135.5 135.5" xmlns="http://www.w3.org/2000/svg"><path transform="scale(.2646)" d="m256 18.66a237.3 237.3 0 0 0-237.3 237.3 237.3 237.3 0 0 0 237.3 237.3 237.3 237.3 0 0 0 237.3-237.3 237.3 237.3 0 0 0-237.3-237.3z" style="fill-rule:evenodd;fill:#f2ead8"/><path d="m67.73 0.2646a67.47 67.47 0 0 0-67.47 67.47 67.47 67.47 0 0 0 67.47 67.47 67.47 67.47 0 0 0 67.47-67.47 67.47 67.47 0 0 0-67.47-67.47zm0 4.672a62.8 62.8 0 0 1 62.8 62.8 62.8 62.8 0 0 1-62.8 62.8 62.8 62.8 0 0 1-62.8-62.8 62.8 62.8 0 0 1 62.8-62.8z" style="fill-rule:evenodd;fill:#9d894d"/><path d="m17.12 94.21h7.99l4.642-13.32h24.2l4.642 13.32h7.99l-20.32-56.69h-8.827zm14.99-20.16 9.74-28.08 9.74 28.08z" style="fill:#000000"/><path d="m94.74 95.12q5.859 0 10.5-2.054 4.718-2.054 7.914-5.326 3.272-3.272 4.642-7l-6.848-3.12q-1.978 4.718-6.163 7.685-4.185 2.891-10.04 2.891-5.935 0-10.58-2.815-4.566-2.815-7.153-7.837t-2.587-11.64q0-6.696 2.587-11.72 2.587-5.022 7.153-7.837 4.642-2.815 10.58-2.815 5.859 0 10.04 2.968 4.185 2.891 6.163 7.609l6.848-3.12q-1.37-3.728-4.642-7-3.196-3.272-7.914-5.326-4.642-2.054-10.5-2.054-6.011 0-11.11 2.207-5.022 2.131-8.827 6.087-3.728 3.957-5.783 9.283-2.054 5.326-2.054 11.72 0 6.316 2.054 11.72 2.054 5.326 5.783 9.283 3.805 3.881 8.827 6.087 5.098 2.131 11.11 2.131z" style="fill:#000000"/></svg>
