<?xml version="1.0" encoding="UTF-8"?>
<svg width="135.5mm" height="135.5mm" version="1.1" viewBox="0 0 135.5 135.5" xmlns="http://www.w3.org/2000/svg"><g transform="translate(2.371e-6 -161.5)"><circle cx="67.73" cy="229.3" r="67.73" style="fill-rule:evenodd;fill:#9d894d"/><circle cx="67.73" cy="229.3" r="63.04" style="fill-rule:evenodd;fill:#f2ead8"/><path d="m43.5 173.8c-2.784 8.037-5.384 15.44-7.8 22.22-2.364 6.776-4.544 13-6.54 18.67-0.4202 1.208-0.8401 2.364-1.26 3.467-0.3677 1.103-0.7617 2.127-1.182 3.073-0.2626 0.7354-0.4726 1.339-0.6302 1.812-0.1576 0.4202-0.2891 0.7876-0.3942 1.103-0.1051 0.3152-0.21 0.5782-0.3151 0.7883-0.05253 0.2101-0.1316 0.4726-0.2366 0.7877l-0.5517-0.0785c-0.7879-0.0526-1.392-0.079-1.812-0.079-0.4202-0.0525-0.7876-0.0791-1.103-0.0791-0.2626-0.0526-0.4991-0.0785-0.7092-0.0785-0.2101-0.0525-0.4991-0.105-0.8668-0.1575-0.3677 0.5778-0.6301 1.208-0.7877 1.891-0.1576 0.6829-0.2891 1.549-0.3942 2.6h1.418c0.3152 0 0.7876-0.0259 1.418-0.0785 0.6303 0 1.392-0.0266 2.285-0.079 1.261-0.1051 2.626-0.1835 4.097-0.236h5.358c0.6303 0 1.234 0.026 1.812 0.0785l1.891 0.1576h1.024c0-0.5253-0.02653-0.9452-0.07906-1.26v-2.995c-0.9455 0.1576-1.549 0.2625-1.812 0.3151h-3.231c-0.3677 0-0.7617-0.0525-1.182-0.1576 0.1051-0.4202 0.1841-0.7876 0.2366-1.103 0.1051-0.3677 0.236-0.9191 0.3936-1.655 0.2101-0.9455 0.3941-1.812 0.5517-2.6 0.2101-0.8404 0.4201-1.654 0.6302-2.442 0.2101-0.7879 0.4466-1.576 0.7092-2.364 0.2626-0.8404 0.5516-1.734 0.8668-2.679 0.3152-0.0525 0.7357-0.0785 1.261-0.0785s1.497-0.0265 2.915-0.0791c2.994-0.1051 5.489-0.236 7.485-0.3936 1.996-0.1576 3.808-0.3681 5.437-0.6308 0.1051 0.4202 0.21 0.8142 0.3151 1.182 0.1051 0.3152 0.2891 0.8406 0.5517 1.576 0.4202 1.208 0.8401 2.6 1.26 4.176 0.1576 0.5778 0.315 1.156 0.4726 1.734 0.2101 0.5253 0.3941 1.077 0.5517 1.655l1.024 3.073 0.1575 0.5517c-1.103 0.1576-2.285 0.236-3.546 0.236l-4.728-0.0785h-0.8668c0.05253 1.051 0.07906 1.812 0.07906 2.285 0 0.4728 0.05249 0.8932 0.1575 1.261 0.3677 0.0526 0.7092 0.1051 1.024 0.1576h0.9453c0.3677 0 0.7882 0.0259 1.261 0.0785h7.485c1.628 0.0525 3.257 0.1056 4.885 0.1581 1.267 0.041 2.712 0.0815 4.169 0.1224-0.7387 0.5059-1.479 1.065-2.224 1.691-1.681 1.418-3.204 2.994-4.57 4.728-1.366 1.733-2.522 3.598-3.467 5.594-0.9455 1.944-1.681 3.966-2.206 6.067-0.4728 2.101-0.7092 4.202-0.7092 6.304 0 3.835 0.7354 7.512 2.206 11.03 1.471 3.519 3.415 6.645 5.831 9.376 2.469 2.679 5.305 4.833 8.509 6.461 3.204 1.576 6.54 2.364 10.01 2.364 1.261 0 2.443-0.079 3.546-0.2366 1.156-0.1576 2.285-0.42 3.388-0.7877 1.156-0.3677 2.312-0.8407 3.467-1.418 1.208-0.5778 2.495-1.287 3.861-2.127 2.206 1.891 3.65 3.178 4.333 3.861 0.5778-0.2101 1.024-0.3416 1.339-0.3941 0.3677-0.0525 0.7882-0.105 1.261-0.1576-0.3152-1.576-0.5517-2.994-0.7092-4.255-0.1576-1.261-0.2366-2.495-0.2366-3.703v-1.103c0-0.4728 0.0266-1.077 0.0791-1.812l0.1575-4.018v-1.734c0-0.3152 0.0259-0.6826 0.0785-1.103-0.3677-0.0526-0.6567-0.079-0.8668-0.079-0.1576-0.0526-0.3675-0.0791-0.6302-0.0791-0.2626-0.0526-0.4466-0.0785-0.5517-0.0785-0.1051 0-0.2885-0.0265-0.5511-0.079-0.9455 1.733-1.76 3.204-2.443 4.412-0.6303 1.208-1.234 2.258-1.812 3.151-1.786 2.836-3.677 4.912-5.673 6.225-1.944 1.313-4.15 1.97-6.619 1.97-4.728 0-8.93-2.285-12.61-6.855-0.7879-0.998-1.47-1.969-2.048-2.915-0.5253-0.998-0.9458-2.075-1.261-3.231-0.3152-1.156-0.5517-2.469-0.7092-3.94-0.1051-1.471-0.1575-3.178-0.1575-5.121 0-5.568 0.289-10.22 0.8668-13.95 0.5778-3.782 1.418-6.54 2.521-8.273 1.208-1.944 2.811-3.44 4.807-4.491 2.049-1.103 4.281-1.655 6.697-1.655 8.667 0 14.6 5.279 17.81 15.84 0.2626 0.0525 0.7881 0.0785 1.576 0.0785h0.6302c0.2101 0 0.4991-0.0525 0.8668-0.1575v-3.624c0.0525-0.7879 0.079-1.418 0.079-1.891v-2.128c0-0.4202-0.0266-0.8667-0.079-1.339-0.0525-1.103-0.105-1.944-0.1576-2.521 0-0.6303-0.0259-1.129-0.0785-1.497v-1.891c0-0.6828 0.0259-1.208 0.0785-1.575 0.0525-0.4202 0.1316-0.9457 0.2366-1.576-0.4202-0.2627-0.8407-0.4202-1.261-0.4726-0.4202-0.1051-0.8926-0.1841-1.418-0.2366-0.3152 0.4202-0.6041 0.7617-0.8668 1.024-0.2101 0.2626-0.5256 0.6306-0.9458 1.103-0.5253 0.5778-0.8668 0.9718-1.024 1.182-0.1576 0.2101-0.341 0.4201-0.5511 0.6302-1.471-0.7879-2.837-1.445-4.097-1.97-1.261-0.5778-2.495-1.024-3.703-1.339s-2.417-0.5511-3.625-0.7087c-1.208-0.1576-2.495-0.2366-3.861-0.2366-1.503 0-2.912 0.1062-4.23 0.318l1.419-0.1616c-0.6829 0-3.153-0.0525-4.571-0.1575-1.418-0.1051-3.02-0.2106-4.806-0.3157-0.6303-1.523-1.261-3.047-1.891-4.57-0.6303-1.576-1.234-3.125-1.812-4.648-1.208-2.942-2.338-5.673-3.388-8.194-0.998-2.574-1.943-4.991-2.836-7.249-1.261-3.204-2.364-5.988-3.31-8.352-0.893-2.364-1.733-4.439-2.521-6.224-0.7354-1.838-1.418-3.493-2.049-4.964-0.5778-1.471-1.182-2.942-1.812-4.412-0.4202-0.9455-0.7092-1.602-0.8668-1.97-0.1576-0.4202-0.3151-0.8407-0.4726-1.261-0.4202 0.0526-0.7882 0.079-1.103 0.079h-1.418c-0.2626 0-0.5782-0.0265-0.9458-0.079zm-0.07848 12.76c0.7354 1.786 1.313 3.257 1.734 4.412 0.4728 1.156 0.8927 2.311 1.26 3.467l1.497 4.334c0.5253 1.471 1.103 3.047 1.734 4.728l1.655 4.57c-0.6303 0.2626-1.155 0.4726-1.575 0.6302-0.3677 0.1051-0.7092 0.21-1.024 0.3151-0.2626 0.0525-0.4991 0.105-0.7092 0.1575h-0.7092c-0.5778 0-1.576-0.0265-2.994-0.079-1.366-0.1051-2.679-0.21-3.94-0.3151-1.103-0.1051-1.864-0.1576-2.285-0.1576-0.4202 0-0.8667-0.0259-1.339-0.0785 0.05253-0.998 0.3409-2.521 0.8662-4.57 0.5253-2.101 1.261-4.517 2.206-7.249 0.4202-1.418 0.7882-2.627 1.103-3.625 0.3677-1.051 0.6826-1.943 0.9453-2.679 0.2626-0.7879 0.5257-1.471 0.7883-2.049 0.2626-0.6303 0.5251-1.234 0.7877-1.812z" style="fill:#000000"/></g></svg>
